<?xml version="1.0" encoding="UTF-8" standalone="no"?>

<svg
	xmlns="http://www.w3.org/2000/svg" version="1.1"
	xmlns:freecad="http://www.freecadweb.org/wiki/index.php?title=Svg_Namespace"
	width="297mm"
	height="210mm"
	viewBox="0 0 297 210">
	<!-- Working space 10 10 287 200 -->
	<!-- Title block 107 162 287 200 -->
	<g>
		<rect
			id="drawing-border"
			style="fill:none;stroke:#000000;stroke-width:0.35;stroke-linecap:miter;stroke-miterlimit:4"
			width="277"
			height="190"
			x="10"
			y="10" />
			<!-- width-20, height-20 -->
		<g
			transform="translate(87,-65)">
			<!-- A4 Portrait based for other formats width-210, height-297 -->
			<!--        page       rect   translation
			               w    h    rw   rh   tx   ty
			        A4-P  210  297  180  277    0    0
			        A3-L  420  297  390  277  210    0
			        A2-L  594  420  564  400  384  123
			        A1-L  841  594  811  574  631  297
			        A0-L 1189  841 1159  821  979  544
			-->
			<g
				id="titleblock-structure"
				style="fill:none;stroke:#000000;stroke-width:0.35;stroke-linecap:miter;stroke-miterlimit:4">
				<rect width="180" height="38" x="20" y="227" />
				<path d="m 20,238 h 180" />
				<path d="m 80,227 v 11" />
				<path d="m 140,227 v 38" />
				<path d="m 160,227 v 11" />
				<path d="m 180,227 v 11" />
				<path d="m 140,254 h 60" />
				<path d="m 180,254 v 11" />
			</g>
			<g
				id="titleblock-text-non-editable"
				style="font-size:3px;text-anchor:start;fill:#000000;font-family:osifont"
				xml:space="preserve">
				<text x="21" y="230.5">Created by:</text>
				<text x="81" y="230.5">Title:</text>
				<text x="21" y="241.5">Supplementary information:</text>
				<text x="141" y="230.5">Size:</text>
				<text x="161" y="230.5">Sheet:</text>
				<text x="181" y="230.5">Scale:</text>
				<text x="141" y="241.5">Part number:</text>
				<text x="141" y="249.5">Drawing no.:</text>
				<text x="141" y="257.5">Date:</text>
				<text x="181" y="257.5">Revision:</text>
			</g>
			<g
				id="titleblock-text-editable"
				style="font-size:5px;text-anchor:middle;fill:#000000;font-family:osifont"
				xml:space="preserve">
				<text freecad:editable="AUTHOR NAME" x="50" y="236"><tspan>AUTHOR NAME</tspan></text>
				<text freecad:editable="DRAWING TITLE" x="110" y="236"><tspan>DRAWING TITLE</tspan></text>
				<text freecad:editable="SI-1" x="80" y="247"><tspan></tspan></text>
				<text freecad:editable="FreeCAD DRAWING" x="80" y="254"><tspan>FreeCAD DRAWING</tspan></text>
				<text freecad:editable="SI-3" x="80" y="261"><tspan></tspan></text>
				<text freecad:editable="FC-SI" x="150" y="236"><tspan>A4</tspan></text>
				<text freecad:editable="FC-SH" x="170" y="236"><tspan>X / Y</tspan></text>
				<text freecad:editable="FC-SC" x="190" y="236"><tspan>SCALE</tspan></text>
				<text freecad:editable="PN" x="180" y="244"><tspan>PN</tspan></text>
				<text freecad:editable="DN" x="180" y="252"><tspan>DN</tspan></text>
				<text freecad:editable="FC-DATE" x="160" y="263"><tspan>DD/MM/YYYY</tspan></text>
				<text freecad:editable="FC-REV" x="190" y="263"><tspan>REV A</tspan></text>
			</g>
			<!-- Set display:none to hide FreeCAD Logo -->
			<g
				style="display:inline"
				id="freecad-logo"
				transform="translate(128.5,254)"
				fill-rule="evenodd"
				stroke="#000"
				stroke-width="0.35"
				fill="none">
					<path d="m0.1524 0.15254v8.8549h1.9744v-3.4652h1.396v-1.3661h-1.396v-1.4745h3.4391v-2.5441l-5.4135-0.005z"/>
					<path d="m7.7927 3.4504-0.50715-0.176-0.48387-1.2366-0.76115 0.04-0.34718 1.2787-0.4859 0.23269-1.2119-0.53015-0.51188 0.56882 0.65892 1.1485-0.18006 0.50567-1.2366 0.48387 0.044064 0.76263 1.2787 0.34718 0.23269 0.4859-0.53421 1.2104 0.56882 0.51188 1.1485-0.65891 0.50973 0.18155 0.4798 1.2351 0.7667-0.04258 0.34311-1.2802 0.4859-0.23269 1.2145 0.5357 0.51188-0.56882-0.65891-1.1485 0.17748-0.51122 1.2351-0.4798-0.03851-0.76521-1.2802-0.34311-0.23269-0.4859 0.53163-1.216-0.56881-0.51184zm-0.5715 1.2244 0.23576 0.13679 0.20426 0.18519 0.16353 0.22101 0.11763 0.24572 0.06916 0.26489 0.01146 0.27146-0.03921 0.27139-0.08948 0.25764-0.14234 0.23834-0.17964 0.20167-0.22101 0.16353-0.24572 0.11763-0.26489 0.06916-0.27295 0.01553-0.2719-0.04-0.2576-0.089-0.2383-0.143-0.2002-0.183-0.165-0.217-0.1177-0.246-0.0676-0.269-0.0156-0.273 0.039206-0.2714 0.089484-0.25764 0.14085-0.23427 0.18113-0.20574 0.22101-0.16352 0.24572-0.11763 0.26895-0.06768 0.27147-0.01146 0.27139 0.03921 0.25764 0.08948z"/>
			</g>
		</g>
	</g>
<g id="Ortho_0_0"
   transform="rotate(0,192,60) translate(192,60) scale(3,3)"
  >
<g   fill="none"
   stroke="rgb(0, 0, 0)"
   stroke-linecap="butt"
   stroke-linejoin="miter"
   stroke-width="0.166667"
   transform="scale(1,-1)"
  >
<path id= "1" d=" M 0 0 L 0 3 " />
<path id= "2" d=" M 0 3 L 0 10 " />
<path id= "3" d=" M 3 0 L 11 0 " />
<path id= "4" d=" M 3 0 L 0 0 " />
<path id= "5" d=" M 0 3 L 3 3 " />
<path id= "6" d=" M 0 10 L 11 10 " />
<path id= "7" d=" M 11 0 L 11 10 " />
<path id= "8" d=" M 3 3 L 3 4.44089e-16 " />
</g>
</g>



<g id="Ortho_0_-1"
   transform="rotate(90,192,140) translate(192,140) scale(3,3)"
  >
<g   fill="none"
   stroke="rgb(0, 0, 0)"
   stroke-linecap="butt"
   stroke-linejoin="miter"
   stroke-width="0.166667"
   transform="scale(1,-1)"
  >
<path id= "1" d=" M 0 0 L -18 0 " />
<path id= "2" d=" M -20 0 L -18 0 " />
<path id= "3" d=" M 0 11 L -20 11 " />
<path id= "4" d=" M -20 3 L -20 11 " />
<path id= "5" d=" M -20 3 L -18 3 " />
<path id= "6" d=" M -18 3 L -18 0 " />
<path id= "7" d=" M 0 0 L 0 11 " />
<path id= "8" d=" M -20 0 L -20 3 " />
</g>
</g>



<g id="Ortho_-1_-1"
   transform="rotate(-60,68,130) translate(68,130) scale(3,3)"
  >
<g   fill="none"
   stroke="rgb(0, 0, 0)"
   stroke-linecap="butt"
   stroke-linejoin="miter"
   stroke-width="0.166667"
   transform="scale(1,-1)"
  >
<path id= "1" d=" M 0 0 L 12.7279 7.34847 " />
<path id= "2" d=" M 12.7279 7.34847 L 12.7279 9.79796 " />
<path id= "3" d=" M 14.1421 10.6145 L 12.7279 9.79796 " />
<path id= "4" d=" M 14.1421 10.6145 L 14.1421 16.3299 " />
<path id= "5" d=" M 0 8.16497 L 14.1421 16.3299 " />
<path id= "6" d=" M 0 0 L 0 8.16497 " />
<path id= "7" d=" M 7.77817 -4.49073 L 21.9203 3.67423 " />
<path id= "8" d=" M 16.2635 6.94022 L 21.9203 3.67423 " />
<path id= "9" d=" M 16.2635 6.94022 L 14.8492 6.12372 " />
<path id= "10" d=" M 14.8492 6.12372 L 12.7279 7.34847 " />
<path id= "11" d=" M 0 0 L 7.77817 -4.49073 " />
<path id= "12" d=" M 12.7279 9.79796 L 14.8492 8.57321 " />
<path id= "13" d=" M 14.8492 8.57321 L 14.8492 6.12372 " />
<path id= "14" d=" M 14.1421 10.6145 L 16.2635 9.38971 " />
<path id= "15" d=" M 16.2635 9.38971 L 14.8492 8.57321 " />
<path id= "16" d=" M 14.1421 16.3299 L 21.9203 11.8392 " />
<path id= "17" d=" M 21.9203 3.67423 L 21.9203 11.8392 " />
<path id= "18" d=" M 16.2635 9.38971 L 16.2635 6.94022 " />
</g>
</g>



<g id="ViewGroup001" transform="rotate(0.0,192.0,60.0) translate(192.0,60.0) scale(3.0,-3.0)"><path d="M 0.0 0.0 L 0.0 -5.0 L 11.0 -5.0 L 11.0 0.0" fill="none" stroke="#0000ff" stroke-width="0.11666666666666665 px" style="stroke-width:0.11666666666666665;stroke-miterlimit:4;stroke-dasharray:none" freecad:basepoint1="0.0 0.0" freecad:basepoint2="11.0 0.0" freecad:dimpoint="0.0 -5.0"/>
<path transform="rotate(-0.0,0.0,-5.0) translate(0.0,-5.0) scale(0.39999999999999997,0.39999999999999997)" freecad:skip="1" fill="#0000ff" stroke="none" style="stroke-miterlimit:4;stroke-dasharray:none" d="M 0 0 L 4 1 L 4 -1 Z"/>
<path transform="rotate(180.0,11.0,-5.0) translate(11.0,-5.0) scale(0.39999999999999997,0.39999999999999997)" freecad:skip="1" fill="#0000ff" stroke="none" style="stroke-miterlimit:4;stroke-dasharray:none" d="M 0 0 L 4 1 L 4 -1 Z"/>
<text fill="#0000ff" font-size="2.0" style="text-anchor:middle;text-align:center;font-family:" transform="rotate(-0.0,5.5,-4.0) translate(5.5,-4.0) scale(1,-1) " freecad:skip="1">
11 mm</text>
<path d="M -0.0 10.0 L -5.0 10.0 L -5.0 0.0 L 0.0 0.0" fill="none" stroke="#0000ff" stroke-width="0.11666666666666665 px" style="stroke-width:0.11666666666666665;stroke-miterlimit:4;stroke-dasharray:none" freecad:basepoint1="-0.0 10.0" freecad:basepoint2="0.0 0.0" freecad:dimpoint="-5.0 10.0"/>
<path transform="rotate(-90.0,-5.0,10.0) translate(-5.0,10.0) scale(0.39999999999999997,0.39999999999999997)" freecad:skip="1" fill="#0000ff" stroke="none" style="stroke-miterlimit:4;stroke-dasharray:none" d="M 0 0 L 4 1 L 4 -1 Z"/>
<path transform="rotate(90.0,-5.0,0.0) translate(-5.0,0.0) scale(0.39999999999999997,0.39999999999999997)" freecad:skip="1" fill="#0000ff" stroke="none" style="stroke-miterlimit:4;stroke-dasharray:none" d="M 0 0 L 4 1 L 4 -1 Z"/>
<text fill="#0000ff" font-size="2.0" style="text-anchor:middle;text-align:center;font-family:" transform="rotate(-90.0,-4.0,5.0) translate(-4.0,5.0) scale(1,-1) " freecad:skip="1">
10 mm</text>
<path d="M 3.0 3.0 L 4.85643564356 3.0 L 4.85643564356 0.0 L 3.0 0.0" fill="none" stroke="#0000ff" stroke-width="0.11666666666666665 px" style="stroke-width:0.11666666666666665;stroke-miterlimit:4;stroke-dasharray:none" freecad:basepoint1="3.0 3.0" freecad:basepoint2="3.0 0.0" freecad:dimpoint="4.85643564356 3.0"/>
<path transform="rotate(-90.0,4.85643564356,3.0) translate(4.85643564356,3.0) scale(0.13333333333333333,0.13333333333333333)" freecad:skip="1" fill="#0000ff" stroke="none" style="stroke-miterlimit:4;stroke-dasharray:none" d="M 0 0 L 4 1 L 4 -1 Z"/>
<path transform="rotate(90.0,4.85643564356,0.0) translate(4.85643564356,0.0) scale(0.13333333333333333,0.13333333333333333)" freecad:skip="1" fill="#0000ff" stroke="none" style="stroke-miterlimit:4;stroke-dasharray:none" d="M 0 0 L 4 1 L 4 -1 Z"/>
<text fill="#0000ff" font-size="2.0" style="text-anchor:middle;text-align:center;font-family:" transform="rotate(-90.0,5.35643564356,1.5) translate(5.35643564356,1.5) scale(1,-1) " freecad:skip="1">
3 </text>
</g>


<g id="ViewGroup" transform="rotate(0.0,192.0,60.0) translate(192.0,60.0) scale(3.0,-3.0)"><text fill="#000000" font-size="2.0" style="text-anchor:start;text-align:left;font-family:Arial" transform="rotate(0.0,12.031976585716,12.663971738571) translate(12.031976585716,12.663971738571) scale(1,-1) " freecad:skip="1">
1</text>
<path id="DWire_w0000"  d="M 1.85643564356 8.31188118812 L 5.85643564356 13.3118811881 L 10.8564356436 13.3118811881 " stroke="#000000" stroke-width="0.11666666666666665 px" style="stroke-width:0.11666666666666665;stroke-miterlimit:4;stroke-dasharray:none;fill:none;fill-rule: evenodd "/>
<path d="M 13.91607971558 13.3118811881 L 13.91607971558 13.311881188100005 " stroke="#000000" stroke-width="0.11666666666666665 px" style="stroke-width:0.11666666666666665;stroke-miterlimit:4;stroke-dasharray:none;fill:none"/>
</g>


<g id="ViewGroup002" transform="rotate(-60.0,68.0,130.0) translate(68.0,130.0) scale(3.0,-3.0)"><text fill="#0000ff" font-size="2.0" style="text-anchor:start;text-align:left;font-family:Arial" transform="rotate(0.0,22.650027858568496,13.59302156276605) translate(22.650027858568496,13.59302156276605) scale(1,-1) " freecad:skip="1">
1</text>
<path id="DWire_w0000"  d="M 15.454833856128639 14.193701702615176 L 18.28326098087483 16.643191445382026 L 21.818794886835853 14.601949993046382 " stroke="#0000ff" stroke-width="0.11666666666666665 px" style="stroke-width:0.11666666666666665;stroke-miterlimit:4;stroke-dasharray:none;fill:none;fill-rule: evenodd "/>
<path d="M 23.98228995815013 13.352855531232652 L 23.98228995815013 13.352855531232656 " stroke="#0000ff" stroke-width="0.11666666666666665 px" style="stroke-width:0.11666666666666665;stroke-miterlimit:4;stroke-dasharray:none;fill:none"/>
</g>


</svg>

