<?xml version="1.0" encoding="UTF-8" standalone="no"?>
<svg
   xmlns:dc="http://purl.org/dc/elements/1.1/"
   xmlns:cc="http://creativecommons.org/ns#"
   xmlns:rdf="http://www.w3.org/1999/02/22-rdf-syntax-ns#"
   xmlns:svg="http://www.w3.org/2000/svg"
   xmlns="http://www.w3.org/2000/svg"
   id="svg5291"
   version="1.1"
   viewBox="0 0 210 297"
   height="297mm"
   width="210mm">
  <defs
     id="defs5285" />
  <metadata
     id="metadata5288">
    <rdf:RDF>
      <cc:Work
         rdf:about="">
        <dc:format>image/svg+xml</dc:format>
        <dc:type
           rdf:resource="http://purl.org/dc/dcmitype/StillImage" />
        <dc:title></dc:title>
      </cc:Work>
    </rdf:RDF>
  </metadata>
  <g
     id="layer1">
    <g
       id="text5295"
       style="font-style:normal;font-weight:normal;font-size:10.58333302px;line-height:1.25;font-family:sans-serif;letter-spacing:0px;word-spacing:0px;fill:#000000;fill-opacity:1;stroke:none;stroke-width:0.26458332"
       aria-label="HOLA">
      <path
         id="path5297"
         style="stroke-width:0.26458332"
         d="m -10.489578,-2.8908957 h 1.0438641 v 3.16259802 h 3.79305 V -2.8908957 h 1.043864 v 7.715291 h -1.043864 v -3.674194 h -3.79305 v 3.674194 h -1.0438641 z" />
      <path
         id="path5299"
         style="stroke-width:0.26458332"
         d="m 0.60018407,-2.1829287 q -1.136881,0 -1.80867497,0.847494 -0.666626,0.84749302 -0.666626,2.30993602 0,1.45727598 0.666626,2.30476898 0.67179397,0.847493 1.80867497,0.847493 1.13688203,0 1.79834003,-0.847493 0.666626,-0.847493 0.666626,-2.30476898 0,-1.462443 -0.666626,-2.30993602 -0.661458,-0.847494 -1.79834003,-0.847494 z m 0,-0.847493 q 1.62264003,0 2.59415703,1.090373 0.971517,1.08520502 0.971517,2.91455002 0,1.82417798 -0.971517,2.91455098 -0.971517,1.085205 -2.59415703,1.085205 -1.62780697,0 -2.60449197,-1.085205 -0.971517,-1.085205 -0.971517,-2.91455098 0,-1.829345 0.971517,-2.91455002 0.976685,-1.090373 2.60449197,-1.090373 z" />
      <path
         id="path5301"
         style="stroke-width:0.26458332"
         d="m 5.7988321,-2.8908957 h 1.043864 v 6.836792 h 3.7568769 v 0.878499 H 5.7988321 Z" />
      <path
         id="path5303"
         style="stroke-width:0.26458332"
         d="m 14.516646,-1.8625347 -1.415934,3.839559 h 2.837036 z m -0.589111,-1.028361 h 1.18339 l 2.940389,7.715291 H 16.966109 L 16.26331,2.8451883 h -3.477824 l -0.7028,1.979207 h -1.100708 z" />
    </g>
  </g>
</svg>
