<?xml version="1.0" encoding="UTF-8" standalone="no"?>
<svg
   xmlns:dc="http://purl.org/dc/elements/1.1/"
   xmlns:cc="http://creativecommons.org/ns#"
   xmlns:rdf="http://www.w3.org/1999/02/22-rdf-syntax-ns#"
   xmlns:svg="http://www.w3.org/2000/svg"
   xmlns="http://www.w3.org/2000/svg"
   id="svg5392"
   version="1.1"
   viewBox="0 0 210 297"
   height="297mm"
   width="210mm">
  <defs
     id="defs5386" />
  <metadata
     id="metadata5389">
    <rdf:RDF>
      <cc:Work
         rdf:about="">
        <dc:format>image/svg+xml</dc:format>
        <dc:type
           rdf:resource="http://purl.org/dc/dcmitype/StillImage" />
        <dc:title></dc:title>
      </cc:Work>
    </rdf:RDF>
  </metadata>
  <g
     id="layer1">
    <g
       transform="translate(-63.5,-75.595238)"
       id="text5396"
       style="font-style:normal;font-weight:normal;font-size:10.58333302px;line-height:1.25;font-family:sans-serif;letter-spacing:0px;word-spacing:0px;fill:#000000;fill-opacity:1;stroke:none;stroke-width:0.26458332"
       aria-label="LIBRE">
      <path
         id="path5398"
         style="stroke-width:0.26458332"
         d="m 55.46727,73.082316 h 1.043864 v 6.836792 h 3.756876 v 0.878499 h -4.80074 z" />
      <path
         id="path5400"
         style="stroke-width:0.26458332"
         d="m 61.358383,73.082316 h 1.043864 v 7.715291 h -1.043864 z" />
      <path
         id="path5402"
         style="stroke-width:0.26458332"
         d="m 65.523503,77.113078 v 2.826701 h 1.674316 q 0.842326,0 1.245402,-0.346232 0.408244,-0.3514 0.408244,-1.069703 0,-0.72347 -0.408244,-1.064534 -0.403076,-0.346232 -1.245402,-0.346232 z m 0,-3.172933 v 2.325439 h 1.545125 q 0.764811,0 1.136882,-0.28422 0.377238,-0.289388 0.377238,-0.878499 0,-0.583944 -0.377238,-0.873332 -0.372071,-0.289388 -1.136882,-0.289388 z m -1.043864,-0.857829 h 2.666504 q 1.193725,0 1.839681,0.496094 0.645955,0.496094 0.645955,1.410767 0,0.707967 -0.330729,1.126546 -0.330729,0.418579 -0.971517,0.521932 0.769979,0.165364 1.193726,0.692464 0.428914,0.521932 0.428914,1.307414 0,1.033528 -0.702799,1.596801 -0.7028,0.563273 -1.999878,0.563273 h -2.769857 z" />
      <path
         id="path5404"
         style="stroke-width:0.26458332"
         d="m 75.393701,77.180257 q 0.335897,0.113688 0.651123,0.485759 0.320394,0.37207 0.640788,1.023193 l 1.059367,2.108398 H 76.6236 L 75.636581,78.8184 Q 75.254175,78.043254 74.89244,77.790039 74.535873,77.536825 73.915755,77.536825 h -1.136881 v 3.260782 H 71.73501 v -7.715291 h 2.356445 q 1.322917,0 1.97404,0.552938 0.651123,0.552938 0.651123,1.669149 0,0.728638 -0.341064,1.209228 -0.335897,0.480591 -0.981853,0.666626 z m -2.614827,-3.240112 v 2.738851 h 1.312581 q 0.754476,0 1.136882,-0.346232 0.387573,-0.3514 0.387573,-1.028361 0,-0.676961 -0.387573,-1.018026 -0.382406,-0.346232 -1.136882,-0.346232 z" />
      <path
         id="path5406"
         style="stroke-width:0.26458332"
         d="m 79.093735,73.082316 h 4.878255 v 0.8785 h -3.834391 v 2.284098 h 3.674194 v 0.878499 h -3.674194 v 2.795695 h 3.927408 v 0.878499 h -4.971272 z" />
    </g>
  </g>
</svg>
