<?xml version="1.0" encoding="UTF-8" standalone="no"?>
<!-- Created with Inkscape (http://www.inkscape.org/) -->

<svg
   xmlns:dc="http://purl.org/dc/elements/1.1/"
   xmlns:cc="http://creativecommons.org/ns#"
   xmlns:rdf="http://www.w3.org/1999/02/22-rdf-syntax-ns#"
   xmlns:svg="http://www.w3.org/2000/svg"
   xmlns="http://www.w3.org/2000/svg"
   xmlns:sodipodi="http://sodipodi.sourceforge.net/DTD/sodipodi-0.dtd"
   xmlns:inkscape="http://www.inkscape.org/namespaces/inkscape"
   width="210mm"
   height="297mm"
   viewBox="0 0 210 297"
   version="1.1"
   id="svg5002"
   inkscape:version="0.92.2 5c3e80d, 2017-08-06"
   sodipodi:docname="names.svg">
  <defs
     id="defs4996" />
  <sodipodi:namedview
     id="base"
     pagecolor="#ffffff"
     bordercolor="#666666"
     borderopacity="1.0"
     inkscape:pageopacity="0.0"
     inkscape:pageshadow="2"
     inkscape:zoom="0.7"
     inkscape:cx="685.7789"
     inkscape:cy="883.39324"
     inkscape:document-units="mm"
     inkscape:current-layer="text5128"
     showgrid="false"
     inkscape:window-width="1440"
     inkscape:window-height="855"
     inkscape:window-x="0"
     inkscape:window-y="1"
     inkscape:window-maximized="1" />
  <metadata
     id="metadata4999">
    <rdf:RDF>
      <cc:Work
         rdf:about="">
        <dc:format>image/svg+xml</dc:format>
        <dc:type
           rdf:resource="http://purl.org/dc/dcmitype/StillImage" />
        <dc:title />
      </cc:Work>
    </rdf:RDF>
  </metadata>
  <g
     inkscape:label="Layer 1"
     inkscape:groupmode="layer"
     id="layer1">
    <g
       aria-label="Trist치n"
       style="font-style:normal;font-weight:normal;font-size:10.58333302px;line-height:1.25;font-family:sans-serif;letter-spacing:0px;word-spacing:0px;fill:#000000;fill-opacity:1;stroke:none;stroke-width:0.26458332"
       id="text5006"
       transform="matrix(1,0,0,1.1608383,-2.9399648,-39.62702)">
      <g
         aria-label="Trist치n"
         transform="scale(1.077422,0.92814141)"
         style="font-style:normal;font-weight:normal;font-size:9.82282925px;line-height:1.25;font-family:sans-serif;letter-spacing:0px;word-spacing:0px;fill:#000000;fill-opacity:1;stroke:none;stroke-width:0.06497392"
         id="text5128">
        <g
           aria-label="Trist치n"
           style="font-style:normal;font-weight:normal;font-size:9.82282925px;line-height:1.25;font-family:sans-serif;letter-spacing:0px;word-spacing:0px;fill:#000000;fill-opacity:1;stroke:none;stroke-width:0.01595569"
           id="text5249"
           transform="translate(-64.550027,-25.258704)">
          <path
             d="m 66.899132,62.161553 h 6.057731 v 0.815371 h -2.542041 v 6.345509 h -0.973649 v -6.345509 h -2.542041 z"
             style="stroke-width:0.01595569"
             id="path5251"
             inkscape:connector-curvature="0" />
          <path
             d="m 75.54207,64.775538 q -0.148685,-0.08633 -0.326148,-0.124704 -0.172667,-0.04317 -0.383705,-0.04317 -0.748223,0 -1.151112,0.489223 -0.398094,0.484427 -0.398094,1.395724 v 2.829819 h -0.887316 v -5.371859 h 0.887316 v 0.834557 q 0.278186,-0.489223 0.724242,-0.724242 0.446057,-0.239815 1.083965,-0.239815 0.09113,0 0.201445,0.01439 0.110315,0.0096 0.244611,0.03357 z"
             style="stroke-width:0.01595569"
             id="path5253"
             inkscape:connector-curvature="0" />
          <path
             d="m 76.486942,63.950574 h 0.88252 v 5.371859 h -0.88252 z m 0,-2.091189 h 0.88252 v 1.117539 h -0.88252 z"
             style="stroke-width:0.01595569"
             id="path5255"
             inkscape:connector-curvature="0" />
          <path
             d="m 82.635803,64.108852 v 0.834557 q -0.374112,-0.191853 -0.777001,-0.287779 -0.40289,-0.09593 -0.834557,-0.09593 -0.657094,0 -0.988038,0.201445 -0.326149,0.201445 -0.326149,0.604334 0,0.306964 0.235019,0.484427 0.235019,0.172667 0.944872,0.330945 l 0.302167,0.06715 q 0.940075,0.201445 1.333372,0.57076 0.398093,0.364519 0.398093,1.021613 0,0.748223 -0.594741,1.184687 -0.589946,0.436463 -1.625947,0.436463 -0.431668,0 -0.901705,-0.08633 -0.465242,-0.08154 -0.983242,-0.249408 v -0.911298 q 0.489222,0.254204 0.964056,0.383705 0.474835,0.124704 0.940076,0.124704 0.623519,0 0.959261,-0.211038 0.335741,-0.215833 0.335741,-0.604334 0,-0.359723 -0.244612,-0.551575 -0.239815,-0.191852 -1.059983,-0.369315 l -0.306963,-0.07194 q -0.820168,-0.172667 -1.184687,-0.527593 -0.364519,-0.359723 -0.364519,-0.983242 0,-0.757816 0.537186,-1.170298 0.537186,-0.412482 1.525224,-0.412482 0.489223,0 0.920891,0.07194 0.431667,0.07194 0.796186,0.215834 z"
             style="stroke-width:0.01595569"
             id="path5257"
             inkscape:connector-curvature="0" />
          <path
             d="m 85.206622,62.425349 v 1.525225 h 1.817799 v 0.685871 h -1.817799 v 2.916153 q 0,0.657093 0.177464,0.844149 0.182259,0.187056 0.733834,0.187056 h 0.906501 v 0.73863 H 86.11792 q -1.021613,0 -1.410113,-0.378907 -0.388501,-0.383705 -0.388501,-1.390928 v -2.916153 h -0.647501 v -0.685871 h 0.647501 v -1.525225 z"
             style="stroke-width:0.01595569"
             id="path5259"
             inkscape:connector-curvature="0" />
          <path
             d="m 90.631241,66.622115 q -1.069575,0 -1.482057,0.244611 -0.412482,0.244612 -0.412482,0.834557 0,0.470038 0.306963,0.748223 0.31176,0.27339 0.844149,0.27339 0.733835,0 1.175095,-0.518001 0.446056,-0.522797 0.446056,-1.386132 v -0.196648 z m 1.760244,-0.364519 v 3.064837 h -0.88252 v -0.815371 q -0.302167,0.489223 -0.75302,0.724242 -0.450852,0.230222 -1.103149,0.230222 -0.824965,0 -1.314188,-0.460445 -0.484426,-0.465241 -0.484426,-1.242242 0,-0.906502 0.604334,-1.366947 0.609131,-0.460445 1.813003,-0.460445 h 1.237446 v -0.08633 q 0,-0.609131 -0.40289,-0.940076 Q 90.707982,64.5693 89.98374,64.5693 q -0.460445,0 -0.896908,0.110315 -0.436464,0.110315 -0.839353,0.330945 v -0.815372 q 0.484426,-0.187056 0.940075,-0.278185 0.455649,-0.09593 0.887316,-0.09593 1.165502,0 1.741058,0.604334 0.575557,0.604334 0.575557,1.832188 z m -1.611558,-4.791507 h 0.954464 l -1.563595,1.80341 h -0.733834 z"
             style="stroke-width:0.01595569"
             id="path5261"
             inkscape:connector-curvature="0" />
          <path
             d="m 98.679438,66.080132 v 3.242301 h -0.88252 V 66.10891 q 0,-0.762612 -0.297371,-1.14152 -0.29737,-0.378908 -0.892112,-0.378908 -0.714649,0 -1.127131,0.455649 -0.412482,0.455649 -0.412482,1.242242 v 3.03606 h -0.887317 v -5.371859 h 0.887317 v 0.834557 q 0.316556,-0.484427 0.743427,-0.724242 0.431667,-0.239815 0.992834,-0.239815 0.925687,0 1.400521,0.575556 0.474834,0.57076 0.474834,1.683502 z"
             style="stroke-width:0.01595569"
             id="path5263"
             inkscape:connector-curvature="0" />
        </g>
        <g
           aria-label="Basti치n"
           style="font-style:normal;font-weight:normal;font-size:9.82282925px;line-height:1.25;font-family:sans-serif;letter-spacing:0px;word-spacing:0px;fill:#000000;fill-opacity:1;stroke:none;stroke-width:0.01595569"
           id="text5268"
           transform="translate(-64.550027,-25.258704)">
          <path
             d="m 71.316524,82.040174 v 2.623578 h 1.554002 q 0.781798,0 1.155909,-0.321353 0.378908,-0.326148 0.378908,-0.992834 0,-0.671483 -0.378908,-0.988039 -0.374111,-0.321352 -1.155909,-0.321352 z m 0,-2.94493 v 2.158336 h 1.434095 q 0.709852,0 1.055186,-0.263797 0.35013,-0.268593 0.35013,-0.815371 0,-0.541983 -0.35013,-0.810575 -0.345334,-0.268593 -1.055186,-0.268593 z m -0.968853,-0.796187 h 2.474892 q 1.107946,0 1.707484,0.460445 0.599538,0.460445 0.599538,1.309391 0,0.657094 -0.306963,1.045594 -0.306964,0.388501 -0.901705,0.484427 0.714649,0.153482 1.107946,0.642705 0.398093,0.484426 0.398093,1.213464 0,0.959261 -0.652297,1.482058 -0.652298,0.522797 -1.85617,0.522797 h -2.570818 z"
             style="stroke-width:0.01595569"
             id="path5270"
             inkscape:connector-curvature="0" />
          <path
             d="m 79.484628,82.759619 q -1.069575,0 -1.482057,0.244612 -0.412483,0.244611 -0.412483,0.834557 0,0.470037 0.306964,0.748223 0.31176,0.273389 0.844149,0.273389 0.733835,0 1.175095,-0.518001 0.446056,-0.522797 0.446056,-1.386131 V 82.759619 Z M 81.244872,82.3951 v 3.064838 h -0.88252 v -0.815372 q -0.302167,0.489223 -0.75302,0.724242 -0.450852,0.230223 -1.10315,0.230223 -0.824964,0 -1.314187,-0.460445 -0.484426,-0.465242 -0.484426,-1.242243 0,-0.906501 0.604334,-1.366946 0.60913,-0.460445 1.813003,-0.460445 h 1.237446 v -0.08633 q 0,-0.60913 -0.40289,-0.940075 -0.398093,-0.335742 -1.122335,-0.335742 -0.460445,0 -0.896908,0.110315 -0.436464,0.110315 -0.839353,0.330945 V 80.33269 q 0.484426,-0.187056 0.940075,-0.278186 0.455649,-0.09593 0.887316,-0.09593 1.165502,0 1.741058,0.604334 0.575557,0.604335 0.575557,1.832188 z"
             style="stroke-width:0.01595569"
             id="path5272"
             inkscape:connector-curvature="0" />
          <path
             d="m 86.492028,80.246356 v 0.834557 q -0.374112,-0.191852 -0.777001,-0.287778 -0.40289,-0.09593 -0.834557,-0.09593 -0.657093,0 -0.988038,0.201445 -0.326149,0.201444 -0.326149,0.604334 0,0.306963 0.235019,0.484426 0.235019,0.172667 0.944872,0.330945 l 0.302167,0.06715 q 0.940075,0.201444 1.333372,0.57076 0.398093,0.364519 0.398093,1.021612 0,0.748224 -0.594741,1.184687 -0.589946,0.436464 -1.625947,0.436464 -0.431668,0 -0.901705,-0.08633 -0.465242,-0.08154 -0.983242,-0.249407 v -0.911298 q 0.489222,0.254204 0.964056,0.383704 0.474835,0.124704 0.940076,0.124704 0.623519,0 0.959261,-0.211037 0.335741,-0.215834 0.335741,-0.604334 0,-0.359723 -0.244612,-0.551575 -0.239815,-0.191852 -1.059983,-0.369316 l -0.306963,-0.07194 Q 83.441579,82.879527 83.07706,82.5246 q -0.364519,-0.359722 -0.364519,-0.983242 0,-0.757816 0.537186,-1.170298 0.537186,-0.412482 1.525224,-0.412482 0.489223,0 0.920891,0.07194 0.431667,0.07194 0.796186,0.215833 z"
             style="stroke-width:0.01595569"
             id="path5274"
             inkscape:connector-curvature="0" />
          <path
             d="m 89.062846,78.562854 v 1.525224 h 1.817799 v 0.685872 h -1.817799 v 2.916152 q 0,0.657094 0.177464,0.84415 0.182259,0.187055 0.733834,0.187055 h 0.906501 v 0.738631 h -0.906501 q -1.021613,0 -1.410113,-0.378908 Q 88.17553,84.697326 88.17553,83.690102 V 80.77395 h -0.647501 v -0.685872 h 0.647501 v -1.525224 z"
             style="stroke-width:0.01595569"
             id="path5276"
             inkscape:connector-curvature="0" />
          <path
             d="m 92.046147,80.088078 h 0.88252 v 5.37186 h -0.88252 z m 0,-2.091188 h 0.88252 v 1.117539 h -0.88252 z"
             style="stroke-width:0.01595569"
             id="path5278"
             inkscape:connector-curvature="0" />
          <path
             d="m 97.211766,82.759619 q -1.069576,0 -1.482058,0.244612 -0.412482,0.244611 -0.412482,0.834557 0,0.470037 0.306963,0.748223 0.31176,0.273389 0.84415,0.273389 0.733834,0 1.175094,-0.518001 0.446056,-0.522797 0.446056,-1.386131 V 82.759619 Z M 98.972009,82.3951 v 3.064838 h -0.88252 v -0.815372 q -0.302167,0.489223 -0.753019,0.724242 -0.450853,0.230223 -1.10315,0.230223 -0.824964,0 -1.314187,-0.460445 -0.484427,-0.465242 -0.484427,-1.242243 0,-0.906501 0.604334,-1.366946 0.609131,-0.460445 1.813003,-0.460445 h 1.237446 v -0.08633 q 0,-0.60913 -0.402889,-0.940075 -0.398093,-0.335742 -1.122335,-0.335742 -0.460445,0 -0.896909,0.110315 -0.436463,0.110315 -0.839353,0.330945 V 80.33269 q 0.484427,-0.187056 0.940076,-0.278186 0.455648,-0.09593 0.887316,-0.09593 1.165501,0 1.741058,0.604334 0.575556,0.604335 0.575556,1.832188 z m -1.611558,-4.791507 h 0.954465 l -1.563595,1.80341 h -0.733835 z"
             style="stroke-width:0.01595569"
             id="path5280"
             inkscape:connector-curvature="0" />
          <path
             d="m 105.25996,82.217637 v 3.242301 h -0.88252 v -3.213523 q 0,-0.762612 -0.29737,-1.14152 -0.29737,-0.378908 -0.89211,-0.378908 -0.71465,0 -1.12713,0.455648 -0.41248,0.455649 -0.41248,1.242243 v 3.03606 h -0.88732 v -5.37186 h 0.88732 v 0.834557 q 0.31655,-0.484427 0.74342,-0.724242 0.43167,-0.239815 0.99284,-0.239815 0.92568,0 1.40052,0.575557 0.47483,0.57076 0.47483,1.683502 z"
             style="stroke-width:0.01595569"
             id="path5282"
             inkscape:connector-curvature="0" />
        </g>
      </g>
    </g>
  </g>
</svg>
