<?xml version="1.0" encoding="UTF-8" standalone="no"?>
<svg
   xmlns:dc="http://purl.org/dc/elements/1.1/"
   xmlns:cc="http://creativecommons.org/ns#"
   xmlns:rdf="http://www.w3.org/1999/02/22-rdf-syntax-ns#"
   xmlns:svg="http://www.w3.org/2000/svg"
   xmlns="http://www.w3.org/2000/svg"
   id="svg67"
   version="1.1"
   viewBox="0 0 210 297"
   height="297mm"
   width="210mm">
  <defs
     id="defs61" />
  <metadata
     id="metadata64">
    <rdf:RDF>
      <cc:Work
         rdf:about="">
        <dc:format>image/svg+xml</dc:format>
        <dc:type
           rdf:resource="http://purl.org/dc/dcmitype/StillImage" />
        <dc:title></dc:title>
      </cc:Work>
    </rdf:RDF>
  </metadata>
  <g
     id="layer1">
    <path
       id="path71"
       d="m 14.967091,-38.155988 c 0,0 -16.4931627,-7.268803 -15.50163175,-28.865109 0.904418,-19.69891 44.90128175,-26.192413 44.90128175,-2.138156 0,24.530626 -14.9671,30.468726 -14.9671,30.468726 h 17.63979 v 34.7450388 l 57.195679,-0.53454 c 0,0 10.69078,-3.20724 10.95805,4.27630995 0.26727,8.01809005 -9.35443,5.87993005 -9.35443,5.87993005 L 36.081381,5.9434818 35.279571,-23.723434 6.9490063,23.316002 45.435821,62.337352 43.832201,101.3587 c 0,0 1.5406,6.75064 -5.61267,6.94902 -7.76013,0.2152 -5.61265,-9.354448 -5.61265,-9.354448 v -31.00326 l -37.9522717,-37.68501 -1.603617,52.11757 -59.3338353,-1.87089 c 0,0 -7.197486,0.0783 -7.483547,-5.61266 -0.431107,-8.57652 6.414469,-6.68174 6.414469,-6.68174 l 44.366742,1.60362 1.603616,-44.36674 27.7960303,-51.850296 -25.3906043,-0.267265 -32.874152,33.9432308 c 0,0 -5.489746,10.3866902 -11.22532,3.4745102 -4.611243,-5.5572102 4.810852,-12.5616802 4.810852,-12.5616802 l 37.417733,-37.4177288 z"
       style="fill:none;stroke:#000000;stroke-width:0.26458332px;stroke-linecap:butt;stroke-linejoin:miter;stroke-opacity:1" />
  </g>
</svg>
