<?xml version="1.0" encoding="UTF-8" standalone="no"?>
<svg
   xmlns:dc="http://purl.org/dc/elements/1.1/"
   xmlns:cc="http://creativecommons.org/ns#"
   xmlns:rdf="http://www.w3.org/1999/02/22-rdf-syntax-ns#"
   xmlns:svg="http://www.w3.org/2000/svg"
   xmlns="http://www.w3.org/2000/svg"
   id="svg26"
   version="1.1"
   viewBox="0 0 210 297"
   height="297mm"
   width="210mm">
  <defs
     id="defs20" />
  <metadata
     id="metadata23">
    <rdf:RDF>
      <cc:Work
         rdf:about="">
        <dc:format>image/svg+xml</dc:format>
        <dc:type
           rdf:resource="http://purl.org/dc/dcmitype/StillImage" />
        <dc:title></dc:title>
      </cc:Work>
    </rdf:RDF>
  </metadata>
  <g
     id="layer1">
    <g
       transform="translate(-92.207987,-64.411956)"
       id="g40">
      <path
         style="fill:none;stroke:#000000;stroke-width:0.26458332px;stroke-linecap:butt;stroke-linejoin:miter;stroke-opacity:1"
         d="m 38.553572,90.436011 c 0,0 7.559522,-60.854166 21.166666,-58.397322 13.607143,2.456847 -3.212798,58.775298 17.008928,58.775298 20.221725,0 10.583333,-65.578869 28.726194,-60.098215 18.14285,5.480656 -7.181552,54.239583 13.04017,57.074406 20.22173,2.83482 18.70983,-60.854166 32.69494,-56.69643 13.98512,4.157739 16.06399,56.318454 16.06399,56.318454"
         id="path28" />
      <path
         style="fill:none;stroke:#000000;stroke-width:0.26458332px;stroke-linecap:butt;stroke-linejoin:miter;stroke-opacity:1"
         d="m 42.522322,90.813987 c 0,0 5.669642,-51.593748 13.229167,-51.971725 7.597131,-0.379857 1.670984,57.659271 20.410712,58.775296 22.651036,1.34896 17.477541,-57.778075 29.860119,-57.830356 12.94803,-0.05467 -14.354358,56.175656 11.33929,56.31845 24.1675,0.134312 18.18123,-59.200241 35.15178,-56.31845 10.01637,1.700894 7.74851,47.058035 7.74851,47.058035"
         id="path30" />
      <path
         style="fill:none;stroke:#000000;stroke-width:0.26458332px;stroke-linecap:butt;stroke-linejoin:miter;stroke-opacity:1"
         d="m 38.553572,90.436011 3.96875,0.377976"
         id="path32" />
      <path
         style="fill:none;stroke:#000000;stroke-width:0.26458332px;stroke-linecap:butt;stroke-linejoin:miter;stroke-opacity:1"
         d="m 160.2619,86.845237 6.99256,0.566965"
         id="path34" />
    </g>
  </g>
</svg>
